<svg width="920" height="383" viewBox="0 0 920 383" fill="none" xmlns="http://www.w3.org/2000/svg">
<g clip-path="url(#clip0_297_3)">
<path d="M78.0896 219.808H169.61V253.662L128.742 352.04H91.7121L132.484 253.662H78.0896H44.417V219.808V188.944H78.0896V219.808Z" fill="#5405BD"/>
<path d="M318.594 219.808V253.662H345.647L349.581 257.616V318.379H342.29H310.248V352.233H356.2H383.253V243.534L359.654 219.808H318.594Z" fill="#5405BD"/>
<path d="M310.44 253.662V219.808H178.916V253.662H230.432H256.142H280.317L256.142 276.424V352.04H289.814V253.662H310.44Z" fill="#5405BD"/>
<path d="M33.6726 228.585H0V383.096H33.6726V228.585Z" fill="#5405BD"/>
<path d="M485.518 219.808H391.12V253.662H471.608L483.887 266.007V352.04H517.56V252.022L485.518 219.808Z" fill="#5405BD"/>
<path d="M484.943 81.1138H390.832V112.942H395.821H417.022L394.286 134.354V205.63H425.944V112.942H471.8L484.943 126.156V173.898H442.732V205.823H497.606H516.696V113.038L484.943 81.1138Z" fill="#F15722"/>
<path d="M353.035 124.612V205.63H384.788V111.399L354.569 81.1138H276.959V112.942H341.427L353.035 124.612Z" fill="#F15722"/>
<path d="M426.519 284.043H392.847V352.04H426.519V284.043Z" fill="#5405BD"/>
<path d="M131.237 112.942H153.109V81.1138H83.27V112.942H99.5787H122.315L99.5787 134.354V205.63H131.237V112.942Z" fill="#F15722"/>
<path d="M271.395 173.898V113.038L239.641 81.0173H160.4V112.942H226.498L239.737 126.156V160.684L226.498 173.898H160.4V205.823H239.641L271.395 173.898Z" fill="#F15722"/>
<path d="M0 218.458H9.59333L19.2826 188.944H3.93326L0 218.458Z" fill="#5405BD"/>
<path d="M15.3494 218.458H25.0386L39.0449 188.944H23.6956L15.3494 218.458Z" fill="#5405BD"/>
<path d="M819.75 269.479H653.689V97.9924H819.75V269.479ZM711.249 0L653.689 57.4838V0L544.613 82.9464V380.107L653.498 270.058L762.957 377.117H920V0H711.345H711.249Z" fill="#5405BD"/>
</g>
<defs>
<clipPath id="clip0_297_3">
<rect width="920" height="383" fill="white"/>
</clipPath>
</defs>
</svg>
